<?xml version="1.0" encoding="UTF-8"?>
<svg xmlns="http://www.w3.org/2000/svg" width="100%" height="480"
     viewBox="0 0 1200 480" preserveAspectRatio="xMidYMin meet"
     role="img" aria-label="Stack profile">
  <defs>
    <linearGradient id="r-fill" x1="0" y1="0" x2="1" y2="1">
      <stop offset="0%" stop-color="#7B5EAA" stop-opacity="0.55"/>
      <stop offset="100%" stop-color="#7B5EAA" stop-opacity="0.18"/>
    </linearGradient>
    <filter id="r-glow" x="-20%" y="-20%" width="140%" height="140%">
      <feGaussianBlur stdDeviation="3"/>
      <feComponentTransfer><feFuncA type="linear" slope="1.6"/></feComponentTransfer>
    </filter>
  </defs>
  <style><![CDATA[
    .r-title  { font-family: 'Inter','SF Pro Display',sans-serif; font-weight: 800; font-size: 22px; letter-spacing: 0.18em; text-transform: uppercase; fill: #FFFFFF; }
    .r-label  { font-family: 'Inter','SF Pro Display',sans-serif; font-weight: 600; font-size: 14px; fill: #FFFFFF; fill-opacity: 0.86; }
    @media (prefers-reduced-motion: reduce) {
  * { animation: none !important; transition: none !important; }
}
  ]]></style>
  <text x="600.0" y="40" class="r-title" text-anchor="middle">Stack profile</text>
  <g transform="translate(0,0)">
    <path d="M 600.0,200.0 L 647.6,234.5 L 629.4,290.5 L 570.6,290.5 L 552.4,234.5 Z" fill="none" stroke="#FFFFFF" stroke-opacity="0.07" stroke-width="1"/>
  <path d="M 600.0,150.0 L 695.1,219.1 L 658.8,330.9 L 541.2,330.9 L 504.9,219.1 Z" fill="none" stroke="#FFFFFF" stroke-opacity="0.09" stroke-width="1"/>
  <path d="M 600.0,100.0 L 742.7,203.6 L 688.2,371.4 L 511.8,371.4 L 457.3,203.6 Z" fill="none" stroke="#FFFFFF" stroke-opacity="0.11" stroke-width="1"/>
  <path d="M 600.0,50.0 L 790.2,188.2 L 717.6,411.8 L 482.4,411.8 L 409.8,188.2 Z" fill="none" stroke="#FFFFFF" stroke-opacity="0.13" stroke-width="1"/>
    <line x1="600.0" y1="250.0" x2="600.0" y2="50.0" stroke="#FFFFFF" stroke-opacity="0.18" stroke-width="1"/>
<line x1="600.0" y1="250.0" x2="790.2" y2="188.2" stroke="#FFFFFF" stroke-opacity="0.18" stroke-width="1"/>
<line x1="600.0" y1="250.0" x2="717.6" y2="411.8" stroke="#FFFFFF" stroke-opacity="0.18" stroke-width="1"/>
<line x1="600.0" y1="250.0" x2="482.4" y2="411.8" stroke="#FFFFFF" stroke-opacity="0.18" stroke-width="1"/>
<line x1="600.0" y1="250.0" x2="409.8" y2="188.2" stroke="#FFFFFF" stroke-opacity="0.18" stroke-width="1"/>
    <g transform="translate(600.0,250.0)">
      <g transform="translate(-600.0,-250.0)">
        <animateTransform attributeName="transform" type="scale" values="1;1.04;1" dur="3.5s" repeatCount="indefinite" additive="sum"/>
        <path d="M 600.0,70.0 L 723.6,209.8 L 688.2,371.4 L 558.9,306.6 L 495.4,216.0 Z" fill="url(#r-fill)" stroke="#7B5EAA"
              stroke-width="2.5" stroke-opacity="0.95" filter="url(#r-glow)"/>
        <circle cx="600.0" cy="70.0" r="5" fill="#7B5EAA" stroke="#FFFFFF" stroke-opacity="0.9" stroke-width="1.5"/>
  <circle cx="723.6" cy="209.8" r="5" fill="#7B5EAA" stroke="#FFFFFF" stroke-opacity="0.9" stroke-width="1.5"/>
  <circle cx="688.2" cy="371.4" r="5" fill="#7B5EAA" stroke="#FFFFFF" stroke-opacity="0.9" stroke-width="1.5"/>
  <circle cx="558.9" cy="306.6" r="5" fill="#7B5EAA" stroke="#FFFFFF" stroke-opacity="0.9" stroke-width="1.5"/>
  <circle cx="495.4" cy="216.0" r="5" fill="#7B5EAA" stroke="#FFFFFF" stroke-opacity="0.9" stroke-width="1.5"/>
      </g>
    </g>
    <text x="600.0" y="26.0" class="r-label" text-anchor="middle">Backend</text>
<text x="816.8" y="183.5" class="r-label" text-anchor="start">Frontend</text>
<text x="734.0" y="438.5" class="r-label" text-anchor="start">DevOps</text>
<text x="466.0" y="438.5" class="r-label" text-anchor="end">Mobile</text>
<text x="383.2" y="183.5" class="r-label" text-anchor="end">ML / Data</text>
  </g>
</svg>
