<?xml version="1.0" encoding="UTF-8"?>
<svg xmlns="http://www.w3.org/2000/svg" width="100%" height="540"
     viewBox="0 0 1200 540" preserveAspectRatio="xMidYMin slice"
     role="img" aria-label="Stack universe">
  <style><![CDATA[
    .gx-title { font-family: 'Inter','SF Pro Display',sans-serif; font-weight: 800; font-size: 22px; letter-spacing: 0.18em; text-transform: uppercase; fill: #FFFFFF; }
    .gx-label { font-family: 'JetBrains Mono','SF Mono','Consolas',monospace; font-weight: 500; font-size: 11px; fill: #FFFFFF; fill-opacity: 0.85; letter-spacing: 0.04em; }
  ]]></style>
  
  <defs>
    <radialGradient id="gx-bg" cx="50%" cy="55%" r="65%">
      <stop offset="0%" stop-color="#1A0A24"/>
      <stop offset="55%" stop-color="#0B0218"/>
      <stop offset="100%" stop-color="#000000"/>
    </radialGradient>
  </defs>
  <rect x="0" y="0" width="1200" height="540" fill="url(#gx-bg)"/>
  <defs>
    <radialGradient id="gx-blob-0" cx="50%" cy="50%" r="50%">
      <stop offset="0%" stop-color="#7B5EAA" stop-opacity="0.32"/>
      <stop offset="100%" stop-color="#7B5EAA" stop-opacity="0"/>
    </radialGradient>
  </defs>
  <circle cx="360" cy="189" r="280" fill="url(#gx-blob-0)">
    <animate attributeName="cx" values="360;390;360"
             dur="12s" repeatCount="indefinite"/>
  </circle>
  <defs>
    <radialGradient id="gx-blob-1" cx="50%" cy="50%" r="50%">
      <stop offset="0%" stop-color="#FF6B9D" stop-opacity="0.32"/>
      <stop offset="100%" stop-color="#FF6B9D" stop-opacity="0"/>
    </radialGradient>
  </defs>
  <circle cx="840" cy="324" r="240" fill="url(#gx-blob-1)">
    <animate attributeName="cx" values="840;870;840"
             dur="15s" repeatCount="indefinite"/>
  </circle>
  <defs>
    <radialGradient id="gx-blob-2" cx="50%" cy="50%" r="50%">
      <stop offset="0%" stop-color="#22D3EE" stop-opacity="0.32"/>
      <stop offset="100%" stop-color="#22D3EE" stop-opacity="0"/>
    </radialGradient>
  </defs>
  <circle cx="600" cy="162" r="200" fill="url(#gx-blob-2)">
    <animate attributeName="cx" values="600;630;600"
             dur="18s" repeatCount="indefinite"/>
  </circle>
  <text x="600.0" y="40" class="gx-title" text-anchor="middle">Stack universe</text>
  <g>
    <animateTransform attributeName="transform" type="translate" values="0 0;-12 -8;0 0" dur="40s" repeatCount="indefinite"/>
    <circle cx="524.9" cy="98.9" r="1.0" fill="#FFFFFF" opacity="0.45"/>
  <circle cx="452.2" cy="374.2" r="1.0" fill="#FFFFFF" opacity="0.39"/>
  <circle cx="923.7" cy="403.6" r="1.6" fill="#FFFFFF" opacity="0.35"/>
  <circle cx="699.8" cy="212.5" r="0.9" fill="#FFFFFF" opacity="0.48"/>
  <circle cx="987.7" cy="134.6" r="0.8" fill="#FFFFFF" opacity="0.54"/>
  <circle cx="386.5" cy="123.8" r="0.6" fill="#FFFFFF" opacity="0.43"/>
  <circle cx="800.0" cy="169.4" r="1.6" fill="#FFFFFF" opacity="0.68"/>
  <circle cx="67.6" cy="211.1" r="1.1" fill="#FFFFFF" opacity="0.29"/>
  <circle cx="119.3" cy="438.5" r="1.3" fill="#FFFFFF" opacity="0.26"/>
  <circle cx="353.3" cy="310.0" r="0.8" fill="#FFFFFF" opacity="0.35"/>
  <circle cx="374.4" cy="256.7" r="1.0" fill="#FFFFFF" opacity="0.59"/>
  <circle cx="583.4" cy="406.2" r="0.9" fill="#FFFFFF" opacity="0.70"/>
  <circle cx="683.3" cy="156.3" r="1.5" fill="#FFFFFF" opacity="0.34"/>
  <circle cx="422.4" cy="12.0" r="1.3" fill="#FFFFFF" opacity="0.29"/>
  <circle cx="477.0" cy="156.9" r="1.3" fill="#FFFFFF" opacity="0.42"/>
  <circle cx="639.4" cy="210.4" r="0.9" fill="#FFFFFF" opacity="0.62"/>
  <circle cx="423.1" cy="248.8" r="0.7" fill="#FFFFFF" opacity="0.68"/>
  <circle cx="238.2" cy="18.4" r="0.6" fill="#FFFFFF" opacity="0.31"/>
  <circle cx="158.8" cy="479.1" r="1.3" fill="#FFFFFF" opacity="0.61"/>
  <circle cx="358.5" cy="399.1" r="0.7" fill="#FFFFFF" opacity="0.75"/>
  <circle cx="836.9" cy="84.9" r="1.3" fill="#FFFFFF" opacity="0.66"/>
  <circle cx="229.8" cy="384.1" r="0.8" fill="#FFFFFF" opacity="0.50"/>
  <circle cx="743.3" cy="184.3" r="1.4" fill="#FFFFFF" opacity="0.73"/>
  <circle cx="484.4" cy="360.9" r="0.9" fill="#FFFFFF" opacity="0.72"/>
  <circle cx="414.3" cy="127.2" r="1.0" fill="#FFFFFF" opacity="0.66"/>
  <circle cx="901.9" cy="120.5" r="0.6" fill="#FFFFFF" opacity="0.50"/>
  <circle cx="1140.9" cy="88.1" r="1.0" fill="#FFFFFF" opacity="0.51"/>
  <circle cx="1012.2" cy="107.3" r="1.4" fill="#FFFFFF" opacity="0.35"/>
  <circle cx="692.8" cy="407.6" r="1.2" fill="#FFFFFF" opacity="0.37"/>
  <circle cx="151.8" cy="180.6" r="1.0" fill="#FFFFFF" opacity="0.40"/>
  <circle cx="687.7" cy="538.9" r="1.4" fill="#FFFFFF" opacity="0.58"/>
  <circle cx="836.8" cy="334.6" r="1.2" fill="#FFFFFF" opacity="0.26"/>
  <circle cx="750.0" cy="471.1" r="1.0" fill="#FFFFFF" opacity="0.30"/>
  <circle cx="709.7" cy="323.3" r="1.3" fill="#FFFFFF" opacity="0.53"/>
  <circle cx="665.6" cy="71.8" r="1.6" fill="#FFFFFF" opacity="0.48"/>
  <circle cx="1074.4" cy="119.1" r="1.1" fill="#FFFFFF" opacity="0.27"/>
  <circle cx="916.4" cy="458.1" r="1.0" fill="#FFFFFF" opacity="0.57"/>
  <circle cx="407.3" cy="257.9" r="1.4" fill="#FFFFFF" opacity="0.31"/>
  <circle cx="385.4" cy="245.8" r="0.8" fill="#FFFFFF" opacity="0.69"/>
  <circle cx="557.8" cy="396.2" r="1.2" fill="#FFFFFF" opacity="0.57"/>
  <circle cx="688.9" cy="437.5" r="1.2" fill="#FFFFFF" opacity="0.70"/>
  <circle cx="1056.8" cy="351.8" r="1.3" fill="#FFFFFF" opacity="0.32"/>
  <circle cx="1162.8" cy="309.2" r="1.0" fill="#FFFFFF" opacity="0.52"/>
  <circle cx="1049.9" cy="273.9" r="1.4" fill="#FFFFFF" opacity="0.33"/>
  <circle cx="312.5" cy="188.1" r="0.9" fill="#FFFFFF" opacity="0.62"/>
  <circle cx="1000.9" cy="21.8" r="0.8" fill="#FFFFFF" opacity="0.40"/>
  <circle cx="305.2" cy="385.8" r="0.9" fill="#FFFFFF" opacity="0.52"/>
  <circle cx="379.9" cy="453.1" r="0.8" fill="#FFFFFF" opacity="0.59"/>
  <circle cx="82.7" cy="98.0" r="0.8" fill="#FFFFFF" opacity="0.68"/>
  <circle cx="961.9" cy="14.5" r="1.3" fill="#FFFFFF" opacity="0.54"/>
  <circle cx="146.5" cy="479.0" r="0.9" fill="#FFFFFF" opacity="0.31"/>
  <circle cx="106.4" cy="364.6" r="1.1" fill="#FFFFFF" opacity="0.33"/>
  <circle cx="1063.3" cy="145.7" r="1.2" fill="#FFFFFF" opacity="0.28"/>
  <circle cx="92.1" cy="464.6" r="1.5" fill="#FFFFFF" opacity="0.73"/>
  <circle cx="1135.8" cy="154.2" r="1.6" fill="#FFFFFF" opacity="0.66"/>
  <circle cx="665.0" cy="528.3" r="0.7" fill="#FFFFFF" opacity="0.44"/>
  <circle cx="378.9" cy="284.6" r="0.9" fill="#FFFFFF" opacity="0.51"/>
  <circle cx="235.7" cy="204.8" r="1.0" fill="#FFFFFF" opacity="0.68"/>
  <circle cx="811.5" cy="387.4" r="1.3" fill="#FFFFFF" opacity="0.74"/>
  <circle cx="427.9" cy="82.4" r="1.5" fill="#FFFFFF" opacity="0.47"/>
  <circle cx="624.8" cy="204.8" r="0.7" fill="#FFFFFF" opacity="0.27"/>
  <circle cx="271.8" cy="313.8" r="1.2" fill="#FFFFFF" opacity="0.29"/>
  <circle cx="543.2" cy="532.8" r="0.6" fill="#FFFFFF" opacity="0.33"/>
  <circle cx="374.2" cy="294.6" r="1.5" fill="#FFFFFF" opacity="0.36"/>
  <circle cx="361.5" cy="403.6" r="1.4" fill="#FFFFFF" opacity="0.69"/>
  <circle cx="1177.7" cy="401.4" r="1.3" fill="#FFFFFF" opacity="0.41"/>
  <circle cx="1100.7" cy="116.2" r="1.3" fill="#FFFFFF" opacity="0.67"/>
  <circle cx="51.5" cy="84.1" r="1.3" fill="#FFFFFF" opacity="0.34"/>
  <circle cx="1085.3" cy="329.1" r="0.6" fill="#FFFFFF" opacity="0.25"/>
  <circle cx="1025.5" cy="314.8" r="1.5" fill="#FFFFFF" opacity="0.59"/>
  <circle cx="331.9" cy="482.1" r="1.3" fill="#FFFFFF" opacity="0.49"/>
  <circle cx="1157.7" cy="64.9" r="0.9" fill="#FFFFFF" opacity="0.35"/>
  <circle cx="854.8" cy="348.5" r="1.3" fill="#FFFFFF" opacity="0.69"/>
  <circle cx="935.3" cy="448.6" r="1.1" fill="#FFFFFF" opacity="0.59"/>
  <circle cx="1122.3" cy="410.2" r="1.0" fill="#FFFFFF" opacity="0.40"/>
  <circle cx="691.6" cy="237.4" r="0.8" fill="#FFFFFF" opacity="0.75"/>
  <circle cx="1180.2" cy="337.7" r="1.1" fill="#FFFFFF" opacity="0.62"/>
  <circle cx="1060.3" cy="57.1" r="1.3" fill="#FFFFFF" opacity="0.67"/>
  <circle cx="566.3" cy="441.4" r="0.7" fill="#FFFFFF" opacity="0.52"/>
  <circle cx="899.5" cy="508.7" r="1.5" fill="#FFFFFF" opacity="0.47"/>
  <circle cx="61.8" cy="285.7" r="0.8" fill="#FFFFFF" opacity="0.62"/>
  <circle cx="445.5" cy="29.4" r="0.8" fill="#FFFFFF" opacity="0.58"/>
  <circle cx="734.7" cy="113.7" r="0.7" fill="#FFFFFF" opacity="0.27"/>
  <circle cx="282.6" cy="315.5" r="1.1" fill="#FFFFFF" opacity="0.69"/>
  <circle cx="229.3" cy="285.2" r="1.5" fill="#FFFFFF" opacity="0.75"/>
  <circle cx="444.6" cy="347.0" r="0.7" fill="#FFFFFF" opacity="0.57"/>
  <circle cx="1101.9" cy="401.5" r="0.6" fill="#FFFFFF" opacity="0.45"/>
  <circle cx="1149.7" cy="525.0" r="1.0" fill="#FFFFFF" opacity="0.61"/>
  <circle cx="266.5" cy="284.0" r="1.0" fill="#FFFFFF" opacity="0.36"/>
  <circle cx="891.2" cy="71.6" r="1.6" fill="#FFFFFF" opacity="0.66"/>
  <circle cx="1192.4" cy="516.1" r="1.3" fill="#FFFFFF" opacity="0.39"/>
  <circle cx="601.7" cy="86.6" r="1.1" fill="#FFFFFF" opacity="0.58"/>
  <circle cx="226.0" cy="304.2" r="1.0" fill="#FFFFFF" opacity="0.27"/>
  <circle cx="988.7" cy="113.0" r="1.1" fill="#FFFFFF" opacity="0.40"/>
  <circle cx="647.9" cy="327.0" r="1.3" fill="#FFFFFF" opacity="0.73"/>
  <circle cx="268.8" cy="98.3" r="1.3" fill="#FFFFFF" opacity="0.65"/>
  <circle cx="1131.0" cy="401.6" r="1.5" fill="#FFFFFF" opacity="0.32"/>
  <circle cx="241.3" cy="277.8" r="1.4" fill="#FFFFFF" opacity="0.54"/>
  <circle cx="802.7" cy="233.5" r="1.2" fill="#FFFFFF" opacity="0.62"/>
  <circle cx="630.1" cy="283.8" r="1.5" fill="#FFFFFF" opacity="0.40"/>
  <circle cx="42.3" cy="1.7" r="0.9" fill="#FFFFFF" opacity="0.66"/>
  <circle cx="464.7" cy="283.8" r="1.2" fill="#FFFFFF" opacity="0.40"/>
  <circle cx="324.3" cy="363.5" r="1.3" fill="#FFFFFF" opacity="0.29"/>
  <circle cx="872.6" cy="486.6" r="0.7" fill="#FFFFFF" opacity="0.39"/>
  <circle cx="666.5" cy="214.5" r="0.9" fill="#FFFFFF" opacity="0.48"/>
  <circle cx="1114.0" cy="269.7" r="0.8" fill="#FFFFFF" opacity="0.30"/>
  <circle cx="382.6" cy="13.9" r="1.2" fill="#FFFFFF" opacity="0.61"/>
  <circle cx="722.7" cy="502.0" r="0.7" fill="#FFFFFF" opacity="0.73"/>
  <circle cx="1023.4" cy="3.2" r="1.5" fill="#FFFFFF" opacity="0.66"/>
  <circle cx="23.0" cy="39.2" r="1.1" fill="#FFFFFF" opacity="0.37"/>
  <circle cx="536.8" cy="121.5" r="1.1" fill="#FFFFFF" opacity="0.38"/>
  <circle cx="711.0" cy="47.5" r="1.4" fill="#FFFFFF" opacity="0.56"/>
  <circle cx="32.8" cy="332.1" r="1.5" fill="#FFFFFF" opacity="0.71"/>
  <circle cx="206.5" cy="62.9" r="0.7" fill="#FFFFFF" opacity="0.39"/>
  <circle cx="911.7" cy="434.6" r="1.0" fill="#FFFFFF" opacity="0.59"/>
  <circle cx="256.2" cy="62.1" r="1.6" fill="#FFFFFF" opacity="0.33"/>
  <circle cx="475.0" cy="485.5" r="1.3" fill="#FFFFFF" opacity="0.64"/>
  <circle cx="343.9" cy="486.0" r="1.3" fill="#FFFFFF" opacity="0.33"/>
  <circle cx="802.9" cy="323.3" r="1.5" fill="#FFFFFF" opacity="0.52"/>
  <circle cx="761.5" cy="83.7" r="1.4" fill="#FFFFFF" opacity="0.29"/>
  <line x1="114.2" y1="338.1" x2="793.3" y2="227.6" stroke="#FFFFFF" stroke-opacity="0.22" stroke-width="1"><animate attributeName="stroke-opacity" values="0.10;0.32;0.10" dur="6s" repeatCount="indefinite"/></line>
  <line x1="118.5" y1="352.6" x2="793.3" y2="227.6" stroke="#FFFFFF" stroke-opacity="0.22" stroke-width="1"><animate attributeName="stroke-opacity" values="0.10;0.32;0.10" dur="6s" repeatCount="indefinite"/></line>
  
  <g transform="translate(114.2,338.1)">
    <circle r="14" fill="#FFD23F" opacity="0.18"/>
    <circle r="6" fill="#FFD23F">
      <animate attributeName="opacity" values="0.55;1;0.55"
               begin="0.00s" dur="2.2s" repeatCount="indefinite"/>
    </circle>
    <line x1="-12" y1="0" x2="12" y2="0"
          stroke="#FFD23F" stroke-opacity="0.55" stroke-width="0.8"/>
    <line x1="0" y1="-12" x2="0" y2="12"
          stroke="#FFD23F" stroke-opacity="0.55" stroke-width="0.8"/>
    <text y="24" class="gx-label" text-anchor="middle">Python</text>
  </g>
  
  <g transform="translate(979.5,400.9)">
    <circle r="13" fill="#22D3EE" opacity="0.18"/>
    <circle r="5" fill="#22D3EE">
      <animate attributeName="opacity" values="0.55;1;0.55"
               begin="0.37s" dur="2.6s" repeatCount="indefinite"/>
    </circle>
    <line x1="-11" y1="0" x2="11" y2="0"
          stroke="#22D3EE" stroke-opacity="0.55" stroke-width="0.8"/>
    <line x1="0" y1="-11" x2="0" y2="11"
          stroke="#22D3EE" stroke-opacity="0.55" stroke-width="0.8"/>
    <text y="23" class="gx-label" text-anchor="middle">Go</text>
  </g>
  
  <g transform="translate(118.5,352.6)">
    <circle r="13" fill="#FF6B9D" opacity="0.18"/>
    <circle r="5" fill="#FF6B9D">
      <animate attributeName="opacity" values="0.55;1;0.55"
               begin="0.74s" dur="3.0s" repeatCount="indefinite"/>
    </circle>
    <line x1="-11" y1="0" x2="11" y2="0"
          stroke="#FF6B9D" stroke-opacity="0.55" stroke-width="0.8"/>
    <line x1="0" y1="-11" x2="0" y2="11"
          stroke="#FF6B9D" stroke-opacity="0.55" stroke-width="0.8"/>
    <text y="23" class="gx-label" text-anchor="middle">React</text>
  </g>
  
  <g transform="translate(793.3,227.6)">
    <circle r="12" fill="#FFD23F" opacity="0.18"/>
    <circle r="4" fill="#FFD23F">
      <animate attributeName="opacity" values="0.55;1;0.55"
               begin="1.11s" dur="3.4s" repeatCount="indefinite"/>
    </circle>
    <line x1="-10" y1="0" x2="10" y2="0"
          stroke="#FFD23F" stroke-opacity="0.55" stroke-width="0.8"/>
    <line x1="0" y1="-10" x2="0" y2="10"
          stroke="#FFD23F" stroke-opacity="0.55" stroke-width="0.8"/>
    <text y="22" class="gx-label" text-anchor="middle">AWS</text>
  </g>
  
  <g transform="translate(902.4,323.3)">
    <circle r="12" fill="#34D399" opacity="0.18"/>
    <circle r="4" fill="#34D399">
      <animate attributeName="opacity" values="0.55;1;0.55"
               begin="1.48s" dur="3.8s" repeatCount="indefinite"/>
    </circle>
    <line x1="-10" y1="0" x2="10" y2="0"
          stroke="#34D399" stroke-opacity="0.55" stroke-width="0.8"/>
    <line x1="0" y1="-10" x2="0" y2="10"
          stroke="#34D399" stroke-opacity="0.55" stroke-width="0.8"/>
    <text y="22" class="gx-label" text-anchor="middle">Postgres</text>
  </g>
  </g>
</svg>
