<?xml version="1.0" encoding="UTF-8"?>
<svg xmlns="http://www.w3.org/2000/svg" width="100%" height="280"
     viewBox="0 0 1200 280" preserveAspectRatio="xMidYMin meet"
     role="img" aria-label="3D stat cubes">
  <defs>
    <filter id="cb-shadow" x="-20%" y="-20%" width="140%" height="140%">
      <feDropShadow dx="0" dy="6" stdDeviation="8" flood-color="#000000" flood-opacity="0.45"/>
    </filter>
  </defs>
  <style><![CDATA[
    .cb-label { font-family: 'JetBrains Mono','SF Mono','Consolas',monospace; font-weight: 800; font-size: 11px; fill: #FFFFFF; fill-opacity: 0.92; letter-spacing: 0.18em; text-transform: uppercase; }
    .cb-value { font-family: 'Inter','SF Pro Display',sans-serif; font-weight: 900; font-size: 22px; fill: #FFFFFF; }
  ]]></style>
  <g filter="url(#cb-shadow)">
    <g><path d="M 180.0,90.0 L 249.3,130.0 L 180.0,170.0 L 110.7,130.0 Z" fill="#7B5EAA" fill-opacity="1.00" stroke="#FFFFFF" stroke-opacity="0.18" stroke-width="1"/><path d="M 180.0,90.0 L 110.7,130.0 L 110.7,210.0 L 180.0,170.0 Z" fill="#7B5EAA" fill-opacity="0.72" stroke="#FFFFFF" stroke-opacity="0.18" stroke-width="1"/><path d="M 249.3,130.0 L 249.3,210.0 L 180.0,250.0 L 180.0,170.0 Z" fill="#7B5EAA" fill-opacity="0.48" stroke="#FFFFFF" stroke-opacity="0.18" stroke-width="1"/></g><text x="180.0" y="132.0" class="cb-label" text-anchor="middle">Python</text><text x="145.4" y="156.0" class="cb-value" text-anchor="middle">42%</text><g><path d="M 460.0,90.0 L 529.3,130.0 L 460.0,170.0 L 390.7,130.0 Z" fill="#FF6B9D" fill-opacity="1.00" stroke="#FFFFFF" stroke-opacity="0.18" stroke-width="1"/><path d="M 460.0,90.0 L 390.7,130.0 L 390.7,210.0 L 460.0,170.0 Z" fill="#FF6B9D" fill-opacity="0.72" stroke="#FFFFFF" stroke-opacity="0.18" stroke-width="1"/><path d="M 529.3,130.0 L 529.3,210.0 L 460.0,250.0 L 460.0,170.0 Z" fill="#FF6B9D" fill-opacity="0.48" stroke="#FFFFFF" stroke-opacity="0.18" stroke-width="1"/></g><text x="460.0" y="132.0" class="cb-label" text-anchor="middle">TypeScript</text><text x="425.4" y="156.0" class="cb-value" text-anchor="middle">28%</text><g><path d="M 740.0,90.0 L 809.3,130.0 L 740.0,170.0 L 670.7,130.0 Z" fill="#22D3EE" fill-opacity="1.00" stroke="#FFFFFF" stroke-opacity="0.18" stroke-width="1"/><path d="M 740.0,90.0 L 670.7,130.0 L 670.7,210.0 L 740.0,170.0 Z" fill="#22D3EE" fill-opacity="0.72" stroke="#FFFFFF" stroke-opacity="0.18" stroke-width="1"/><path d="M 809.3,130.0 L 809.3,210.0 L 740.0,250.0 L 740.0,170.0 Z" fill="#22D3EE" fill-opacity="0.48" stroke="#FFFFFF" stroke-opacity="0.18" stroke-width="1"/></g><text x="740.0" y="132.0" class="cb-label" text-anchor="middle">Rust</text><text x="705.4" y="156.0" class="cb-value" text-anchor="middle">18%</text><g><path d="M 1020.0,90.0 L 1089.3,130.0 L 1020.0,170.0 L 950.7,130.0 Z" fill="#FFD23F" fill-opacity="1.00" stroke="#FFFFFF" stroke-opacity="0.18" stroke-width="1"/><path d="M 1020.0,90.0 L 950.7,130.0 L 950.7,210.0 L 1020.0,170.0 Z" fill="#FFD23F" fill-opacity="0.72" stroke="#FFFFFF" stroke-opacity="0.18" stroke-width="1"/><path d="M 1089.3,130.0 L 1089.3,210.0 L 1020.0,250.0 L 1020.0,170.0 Z" fill="#FFD23F" fill-opacity="0.48" stroke="#FFFFFF" stroke-opacity="0.18" stroke-width="1"/></g><text x="1020.0" y="132.0" class="cb-label" text-anchor="middle">Go</text><text x="985.4" y="156.0" class="cb-value" text-anchor="middle">12%</text>
  </g>
</svg>
