<?xml version="1.0" encoding="UTF-8"?>
<svg xmlns="http://www.w3.org/2000/svg" width="100%" height="280"
     viewBox="0 0 1200 280" preserveAspectRatio="xMidYMin meet"
     role="img" aria-label="3D stat cubes">
  <defs>
    <filter id="cb-shadow" x="-20%" y="-20%" width="140%" height="140%">
      <feDropShadow dx="0" dy="6" stdDeviation="8" flood-color="#000000" flood-opacity="0.45"/>
    </filter>
  </defs>
  <style><![CDATA[
    .cb-label { font-family: 'JetBrains Mono','SF Mono','Consolas',monospace; font-weight: 800; font-size: 11px; fill: #FFFFFF; fill-opacity: 0.92; letter-spacing: 0.18em; text-transform: uppercase; }
    .cb-value { font-family: 'Inter','SF Pro Display',sans-serif; font-weight: 900; font-size: 22px; fill: #FFFFFF; }
  ]]></style>
  <g filter="url(#cb-shadow)">
    <g><animateTransform attributeName="transform" type="rotate" from="-2 152.0 170.0" to="2 152.0 170.0" dur="4s" repeatCount="indefinite" additive="sum" calcMode="linear" values="-2;2;-2"/><path d="M 152.0,90.0 L 221.3,130.0 L 152.0,170.0 L 82.7,130.0 Z" fill="#7B5EAA" fill-opacity="1.00" stroke="#FFFFFF" stroke-opacity="0.18" stroke-width="1"/><path d="M 152.0,90.0 L 82.7,130.0 L 82.7,210.0 L 152.0,170.0 Z" fill="#7B5EAA" fill-opacity="0.72" stroke="#FFFFFF" stroke-opacity="0.18" stroke-width="1"/><path d="M 221.3,130.0 L 221.3,210.0 L 152.0,250.0 L 152.0,170.0 Z" fill="#7B5EAA" fill-opacity="0.48" stroke="#FFFFFF" stroke-opacity="0.18" stroke-width="1"/></g><text x="152.0" y="132.0" class="cb-label" text-anchor="middle">PRs</text><text x="117.4" y="156.0" class="cb-value" text-anchor="middle">1.2k</text><g><animateTransform attributeName="transform" type="rotate" from="-2 376.0 170.0" to="2 376.0 170.0" dur="5s" repeatCount="indefinite" additive="sum" calcMode="linear" values="-2;2;-2"/><path d="M 376.0,90.0 L 445.3,130.0 L 376.0,170.0 L 306.7,130.0 Z" fill="#FF6B9D" fill-opacity="1.00" stroke="#FFFFFF" stroke-opacity="0.18" stroke-width="1"/><path d="M 376.0,90.0 L 306.7,130.0 L 306.7,210.0 L 376.0,170.0 Z" fill="#FF6B9D" fill-opacity="0.72" stroke="#FFFFFF" stroke-opacity="0.18" stroke-width="1"/><path d="M 445.3,130.0 L 445.3,210.0 L 376.0,250.0 L 376.0,170.0 Z" fill="#FF6B9D" fill-opacity="0.48" stroke="#FFFFFF" stroke-opacity="0.18" stroke-width="1"/></g><text x="376.0" y="132.0" class="cb-label" text-anchor="middle">Commits</text><text x="341.4" y="156.0" class="cb-value" text-anchor="middle">8.4k</text><g><animateTransform attributeName="transform" type="rotate" from="-2 600.0 170.0" to="2 600.0 170.0" dur="6s" repeatCount="indefinite" additive="sum" calcMode="linear" values="-2;2;-2"/><path d="M 600.0,90.0 L 669.3,130.0 L 600.0,170.0 L 530.7,130.0 Z" fill="#22D3EE" fill-opacity="1.00" stroke="#FFFFFF" stroke-opacity="0.18" stroke-width="1"/><path d="M 600.0,90.0 L 530.7,130.0 L 530.7,210.0 L 600.0,170.0 Z" fill="#22D3EE" fill-opacity="0.72" stroke="#FFFFFF" stroke-opacity="0.18" stroke-width="1"/><path d="M 669.3,130.0 L 669.3,210.0 L 600.0,250.0 L 600.0,170.0 Z" fill="#22D3EE" fill-opacity="0.48" stroke="#FFFFFF" stroke-opacity="0.18" stroke-width="1"/></g><text x="600.0" y="132.0" class="cb-label" text-anchor="middle">Stars</text><text x="565.4" y="156.0" class="cb-value" text-anchor="middle">3.1k</text><g><animateTransform attributeName="transform" type="rotate" from="-2 824.0 170.0" to="2 824.0 170.0" dur="4s" repeatCount="indefinite" additive="sum" calcMode="linear" values="-2;2;-2"/><path d="M 824.0,90.0 L 893.3,130.0 L 824.0,170.0 L 754.7,130.0 Z" fill="#FFD23F" fill-opacity="1.00" stroke="#FFFFFF" stroke-opacity="0.18" stroke-width="1"/><path d="M 824.0,90.0 L 754.7,130.0 L 754.7,210.0 L 824.0,170.0 Z" fill="#FFD23F" fill-opacity="0.72" stroke="#FFFFFF" stroke-opacity="0.18" stroke-width="1"/><path d="M 893.3,130.0 L 893.3,210.0 L 824.0,250.0 L 824.0,170.0 Z" fill="#FFD23F" fill-opacity="0.48" stroke="#FFFFFF" stroke-opacity="0.18" stroke-width="1"/></g><text x="824.0" y="132.0" class="cb-label" text-anchor="middle">Repos</text><text x="789.4" y="156.0" class="cb-value" text-anchor="middle">47</text><g><animateTransform attributeName="transform" type="rotate" from="-2 1048.0 170.0" to="2 1048.0 170.0" dur="5s" repeatCount="indefinite" additive="sum" calcMode="linear" values="-2;2;-2"/><path d="M 1048.0,90.0 L 1117.3,130.0 L 1048.0,170.0 L 978.7,130.0 Z" fill="#34D399" fill-opacity="1.00" stroke="#FFFFFF" stroke-opacity="0.18" stroke-width="1"/><path d="M 1048.0,90.0 L 978.7,130.0 L 978.7,210.0 L 1048.0,170.0 Z" fill="#34D399" fill-opacity="0.72" stroke="#FFFFFF" stroke-opacity="0.18" stroke-width="1"/><path d="M 1117.3,130.0 L 1117.3,210.0 L 1048.0,250.0 L 1048.0,170.0 Z" fill="#34D399" fill-opacity="0.48" stroke="#FFFFFF" stroke-opacity="0.18" stroke-width="1"/></g><text x="1048.0" y="132.0" class="cb-label" text-anchor="middle">Streak</text><text x="1013.4" y="156.0" class="cb-value" text-anchor="middle">112d</text>
  </g>
</svg>
