<?xml version="1.0" encoding="UTF-8"?>
<svg xmlns="http://www.w3.org/2000/svg" width="100%" height="360"
     viewBox="0 0 1200 360" preserveAspectRatio="xMidYMin meet"
     role="img" aria-label="Achievements">
  <defs>
    <linearGradient id="tr-cabinet" x1="0" y1="0" x2="0" y2="1">
      <stop offset="0%" stop-color="#1A0F0A"/>
      <stop offset="40%" stop-color="#2A1A12"/>
      <stop offset="100%" stop-color="#0E0805"/>
    </linearGradient>
    <linearGradient id="tr-shelf" x1="0" y1="0" x2="0" y2="1">
      <stop offset="0%" stop-color="#5C3A24"/>
      <stop offset="100%" stop-color="#3A2418"/>
    </linearGradient>
    <filter id="tr-shadow" x="-20%" y="-20%" width="140%" height="140%">
      <feDropShadow dx="0" dy="4" stdDeviation="6" flood-color="#000000" flood-opacity="0.65"/>
    </filter>
    <radialGradient id="tr-grad-0" cx="40%" cy="35%" r="70%"><stop offset="0%" stop-color="#FFFFFF" stop-opacity="0.25"/><stop offset="50%" stop-color="#FFD23F" stop-opacity="0.95"/><stop offset="100%" stop-color="#FFD23F" stop-opacity="0.55"/></radialGradient>
  <radialGradient id="tr-grad-1" cx="40%" cy="35%" r="70%"><stop offset="0%" stop-color="#FFFFFF" stop-opacity="0.25"/><stop offset="50%" stop-color="#FF6B9D" stop-opacity="0.95"/><stop offset="100%" stop-color="#FF6B9D" stop-opacity="0.55"/></radialGradient>
  <radialGradient id="tr-grad-2" cx="40%" cy="35%" r="70%"><stop offset="0%" stop-color="#FFFFFF" stop-opacity="0.25"/><stop offset="50%" stop-color="#22D3EE" stop-opacity="0.95"/><stop offset="100%" stop-color="#22D3EE" stop-opacity="0.55"/></radialGradient>
  <radialGradient id="tr-grad-3" cx="40%" cy="35%" r="70%"><stop offset="0%" stop-color="#FFFFFF" stop-opacity="0.25"/><stop offset="50%" stop-color="#34D399" stop-opacity="0.95"/><stop offset="100%" stop-color="#34D399" stop-opacity="0.55"/></radialGradient>
  <radialGradient id="tr-grad-4" cx="40%" cy="35%" r="70%"><stop offset="0%" stop-color="#FFFFFF" stop-opacity="0.25"/><stop offset="50%" stop-color="#7C3AED" stop-opacity="0.95"/><stop offset="100%" stop-color="#7C3AED" stop-opacity="0.55"/></radialGradient>
  <radialGradient id="tr-grad-5" cx="40%" cy="35%" r="70%"><stop offset="0%" stop-color="#FFFFFF" stop-opacity="0.25"/><stop offset="50%" stop-color="#F90001" stop-opacity="0.95"/><stop offset="100%" stop-color="#F90001" stop-opacity="0.55"/></radialGradient>
  <radialGradient id="tr-grad-6" cx="40%" cy="35%" r="70%"><stop offset="0%" stop-color="#FFFFFF" stop-opacity="0.25"/><stop offset="50%" stop-color="#FFD23F" stop-opacity="0.95"/><stop offset="100%" stop-color="#FFD23F" stop-opacity="0.55"/></radialGradient>
  <radialGradient id="tr-grad-7" cx="40%" cy="35%" r="70%"><stop offset="0%" stop-color="#FFFFFF" stop-opacity="0.25"/><stop offset="50%" stop-color="#FF6B9D" stop-opacity="0.95"/><stop offset="100%" stop-color="#FF6B9D" stop-opacity="0.55"/></radialGradient>
  </defs>
  <style><![CDATA[
    .tr-title { font-family: 'Inter','SF Pro Display',sans-serif; font-weight: 900; font-size: 24px; letter-spacing: 0.24em; text-transform: uppercase; fill: #FFFFFF; }
    .tr-label { font-family: 'Inter','SF Pro Display',sans-serif; font-weight: 700; font-size: 13px; fill: #FFFFFF; fill-opacity: 0.92; letter-spacing: 0.04em; }
    .tr-date  { font-family: 'JetBrains Mono','SF Mono',monospace; font-weight: 500; font-size: 10px; fill: #FFFFFF; fill-opacity: 0.55; letter-spacing: 0.12em; }
    .tr-glyph { font-family: 'Inter','SF Pro Display',sans-serif; font-weight: 800; font-size: 28px; fill: #FFFFFF; text-anchor: middle; }
  ]]></style>
  <rect x="0" y="0" width="1200" height="360" fill="url(#tr-cabinet)"/>
  <rect x="20" y="20" width="1160" height="320" fill="none"
        stroke="#5C3A24" stroke-opacity="0.6" stroke-width="2"/>
  <text x="600.0" y="48" class="tr-title" text-anchor="middle">Achievements</text>
  
  <g transform="translate(210.0,132.5)">
    <animateTransform attributeName="transform" type="scale" values="1;1.03;1" dur="3.5s" repeatCount="indefinite" additive="sum"/>
    <g transform="translate(-210.0,-132.5)">
      <path d="M 210.0,84.5 L 251.6,108.5 L 251.6,156.5 L 210.0,180.5 L 168.4,156.5 L 168.4,108.5 Z" fill="url(#tr-grad-0)" stroke="#FFFFFF"
            stroke-opacity="0.42" stroke-width="2" filter="url(#tr-shadow)"/>
      <path d="M 210.0,84.5 L 251.6,108.5 L 251.6,156.5 L 210.0,180.5 L 168.4,156.5 L 168.4,108.5 Z" fill="none" stroke="#FFD23F" stroke-opacity="0.9"
            stroke-width="1.5" stroke-dasharray="3 4">
        <animate attributeName="stroke-dashoffset" from="0" to="-14"
                 dur="6s" repeatCount="indefinite"/>
      </path>
      <text x="210.0" y="138.5" class="tr-glyph" text-anchor="middle">★</text>
    </g>
  </g>
  <text x="210.0" y="202.5" class="tr-label" text-anchor="middle">First PR</text>
  <text x="210.0" y="218.5" class="tr-date" text-anchor="middle">2018</text>

  <g transform="translate(470.0,132.5)">
    <animateTransform attributeName="transform" type="scale" values="1;1.03;1" dur="3.9s" repeatCount="indefinite" additive="sum"/>
    <g transform="translate(-470.0,-132.5)">
      <path d="M 470.0,84.5 L 511.6,108.5 L 511.6,156.5 L 470.0,180.5 L 428.4,156.5 L 428.4,108.5 Z" fill="url(#tr-grad-1)" stroke="#FFFFFF"
            stroke-opacity="0.42" stroke-width="2" filter="url(#tr-shadow)"/>
      <path d="M 470.0,84.5 L 511.6,108.5 L 511.6,156.5 L 470.0,180.5 L 428.4,156.5 L 428.4,108.5 Z" fill="none" stroke="#FF6B9D" stroke-opacity="0.9"
            stroke-width="1.5" stroke-dasharray="3 4">
        <animate attributeName="stroke-dashoffset" from="0" to="-14"
                 dur="6s" repeatCount="indefinite"/>
      </path>
      <text x="470.0" y="138.5" class="tr-glyph" text-anchor="middle">🔥</text>
    </g>
  </g>
  <text x="470.0" y="202.5" class="tr-label" text-anchor="middle">1k Commits</text>
  <text x="470.0" y="218.5" class="tr-date" text-anchor="middle">2020</text>

  <g transform="translate(730.0,132.5)">
    <animateTransform attributeName="transform" type="scale" values="1;1.03;1" dur="4.3s" repeatCount="indefinite" additive="sum"/>
    <g transform="translate(-730.0,-132.5)">
      <path d="M 730.0,84.5 L 771.6,108.5 L 771.6,156.5 L 730.0,180.5 L 688.4,156.5 L 688.4,108.5 Z" fill="url(#tr-grad-2)" stroke="#FFFFFF"
            stroke-opacity="0.42" stroke-width="2" filter="url(#tr-shadow)"/>
      <path d="M 730.0,84.5 L 771.6,108.5 L 771.6,156.5 L 730.0,180.5 L 688.4,156.5 L 688.4,108.5 Z" fill="none" stroke="#22D3EE" stroke-opacity="0.9"
            stroke-width="1.5" stroke-dasharray="3 4">
        <animate attributeName="stroke-dashoffset" from="0" to="-14"
                 dur="6s" repeatCount="indefinite"/>
      </path>
      <text x="730.0" y="138.5" class="tr-glyph" text-anchor="middle">Ⓜ</text>
    </g>
  </g>
  <text x="730.0" y="202.5" class="tr-label" text-anchor="middle">OSS Maintainer</text>
  <text x="730.0" y="218.5" class="tr-date" text-anchor="middle">2022</text>

  <g transform="translate(990.0,132.5)">
    <animateTransform attributeName="transform" type="scale" values="1;1.03;1" dur="3.5s" repeatCount="indefinite" additive="sum"/>
    <g transform="translate(-990.0,-132.5)">
      <path d="M 990.0,84.5 L 1031.6,108.5 L 1031.6,156.5 L 990.0,180.5 L 948.4,156.5 L 948.4,108.5 Z" fill="url(#tr-grad-3)" stroke="#FFFFFF"
            stroke-opacity="0.42" stroke-width="2" filter="url(#tr-shadow)"/>
      <path d="M 990.0,84.5 L 1031.6,108.5 L 1031.6,156.5 L 990.0,180.5 L 948.4,156.5 L 948.4,108.5 Z" fill="none" stroke="#34D399" stroke-opacity="0.9"
            stroke-width="1.5" stroke-dasharray="3 4">
        <animate attributeName="stroke-dashoffset" from="0" to="-14"
                 dur="6s" repeatCount="indefinite"/>
      </path>
      <text x="990.0" y="138.5" class="tr-glyph" text-anchor="middle">☁</text>
    </g>
  </g>
  <text x="990.0" y="202.5" class="tr-label" text-anchor="middle">AWS Certified</text>
  <text x="990.0" y="218.5" class="tr-date" text-anchor="middle">2023</text>

  <g transform="translate(210.0,257.5)">
    <animateTransform attributeName="transform" type="scale" values="1;1.03;1" dur="3.9s" repeatCount="indefinite" additive="sum"/>
    <g transform="translate(-210.0,-257.5)">
      <path d="M 210.0,209.5 L 251.6,233.5 L 251.6,281.5 L 210.0,305.5 L 168.4,281.5 L 168.4,233.5 Z" fill="url(#tr-grad-4)" stroke="#FFFFFF"
            stroke-opacity="0.42" stroke-width="2" filter="url(#tr-shadow)"/>
      <path d="M 210.0,209.5 L 251.6,233.5 L 251.6,281.5 L 210.0,305.5 L 168.4,281.5 L 168.4,233.5 Z" fill="none" stroke="#7C3AED" stroke-opacity="0.9"
            stroke-width="1.5" stroke-dasharray="3 4">
        <animate attributeName="stroke-dashoffset" from="0" to="-14"
                 dur="6s" repeatCount="indefinite"/>
      </path>
      <text x="210.0" y="263.5" class="tr-glyph" text-anchor="middle">🎤</text>
    </g>
  </g>
  <text x="210.0" y="327.5" class="tr-label" text-anchor="middle">Speaker</text>
  <text x="210.0" y="343.5" class="tr-date" text-anchor="middle">2024</text>

  <g transform="translate(470.0,257.5)">
    <animateTransform attributeName="transform" type="scale" values="1;1.03;1" dur="4.3s" repeatCount="indefinite" additive="sum"/>
    <g transform="translate(-470.0,-257.5)">
      <path d="M 470.0,209.5 L 511.6,233.5 L 511.6,281.5 L 470.0,305.5 L 428.4,281.5 L 428.4,233.5 Z" fill="url(#tr-grad-5)" stroke="#FFFFFF"
            stroke-opacity="0.42" stroke-width="2" filter="url(#tr-shadow)"/>
      <path d="M 470.0,209.5 L 511.6,233.5 L 511.6,281.5 L 470.0,305.5 L 428.4,281.5 L 428.4,233.5 Z" fill="none" stroke="#F90001" stroke-opacity="0.9"
            stroke-width="1.5" stroke-dasharray="3 4">
        <animate attributeName="stroke-dashoffset" from="0" to="-14"
                 dur="6s" repeatCount="indefinite"/>
      </path>
      <text x="470.0" y="263.5" class="tr-glyph" text-anchor="middle">🧠</text>
    </g>
  </g>
  <text x="470.0" y="327.5" class="tr-label" text-anchor="middle">Cortex v1</text>
  <text x="470.0" y="343.5" class="tr-date" text-anchor="middle">2026-04</text>

  <g transform="translate(730.0,257.5)">
    <animateTransform attributeName="transform" type="scale" values="1;1.03;1" dur="3.5s" repeatCount="indefinite" additive="sum"/>
    <g transform="translate(-730.0,-257.5)">
      <path d="M 730.0,209.5 L 771.6,233.5 L 771.6,281.5 L 730.0,305.5 L 688.4,281.5 L 688.4,233.5 Z" fill="url(#tr-grad-6)" stroke="#FFFFFF"
            stroke-opacity="0.42" stroke-width="2" filter="url(#tr-shadow)"/>
      <path d="M 730.0,209.5 L 771.6,233.5 L 771.6,281.5 L 730.0,305.5 L 688.4,281.5 L 688.4,233.5 Z" fill="none" stroke="#FFD23F" stroke-opacity="0.9"
            stroke-width="1.5" stroke-dasharray="3 4">
        <animate attributeName="stroke-dashoffset" from="0" to="-14"
                 dur="6s" repeatCount="indefinite"/>
      </path>
      <text x="730.0" y="263.5" class="tr-glyph" text-anchor="middle">⬇</text>
    </g>
  </g>
  <text x="730.0" y="327.5" class="tr-label" text-anchor="middle">100k Downloads</text>
  <text x="730.0" y="343.5" class="tr-date" text-anchor="middle">2026</text>

  <g transform="translate(990.0,257.5)">
    <animateTransform attributeName="transform" type="scale" values="1;1.03;1" dur="3.9s" repeatCount="indefinite" additive="sum"/>
    <g transform="translate(-990.0,-257.5)">
      <path d="M 990.0,209.5 L 1031.6,233.5 L 1031.6,281.5 L 990.0,305.5 L 948.4,281.5 L 948.4,233.5 Z" fill="url(#tr-grad-7)" stroke="#FFFFFF"
            stroke-opacity="0.42" stroke-width="2" filter="url(#tr-shadow)"/>
      <path d="M 990.0,209.5 L 1031.6,233.5 L 1031.6,281.5 L 990.0,305.5 L 948.4,281.5 L 948.4,233.5 Z" fill="none" stroke="#FF6B9D" stroke-opacity="0.9"
            stroke-width="1.5" stroke-dasharray="3 4">
        <animate attributeName="stroke-dashoffset" from="0" to="-14"
                 dur="6s" repeatCount="indefinite"/>
      </path>
      <text x="990.0" y="263.5" class="tr-glyph" text-anchor="middle">Ⓗ</text>
    </g>
  </g>
  <text x="990.0" y="327.5" class="tr-label" text-anchor="middle">Hall of Fame</text>
  <text x="990.0" y="343.5" class="tr-date" text-anchor="middle">2026</text>

</svg>
