<?xml version="1.0" encoding="UTF-8"?>
<svg xmlns="http://www.w3.org/2000/svg" width="100%" height="24" viewBox="0 0 1200 24"
     preserveAspectRatio="none" role="presentation" aria-hidden="true">
  <defs>
    <!-- Each sweep gradient drifts left↔right on a unique cycle. The fade at
         each end means the colored portion of each wave is always a soft
         travelling band, never the whole wave at once. Different durations
         (9s, 11s, 14s) and offset begin times keep the 3 waves out of sync. -->
    <linearGradient id="waveSweep1" x1="0" y1="0" x2="1" y2="0" gradientUnits="objectBoundingBox">
      <stop offset="0%"   stop-color="#4F8CC4" stop-opacity="0"/>
      <stop offset="50%"  stop-color="#4F8CC4" stop-opacity="0.85"/>
      <stop offset="100%" stop-color="#4F8CC4" stop-opacity="0"/>
      <animate attributeName="x1" values="-1;1;-1" dur="9s" repeatCount="indefinite"
               calcMode="spline" keyTimes="0;0.5;1" keySplines="0.4 0 0.6 1;0.4 0 0.6 1"/>
      <animate attributeName="x2" values="0;2;0" dur="9s" repeatCount="indefinite"
               calcMode="spline" keyTimes="0;0.5;1" keySplines="0.4 0 0.6 1;0.4 0 0.6 1"/>
    </linearGradient>
    <linearGradient id="waveSweep2" x1="0" y1="0" x2="1" y2="0" gradientUnits="objectBoundingBox">
      <stop offset="0%"   stop-color="#C95E8A" stop-opacity="0"/>
      <stop offset="50%"  stop-color="#C95E8A" stop-opacity="0.90"/>
      <stop offset="100%" stop-color="#C95E8A" stop-opacity="0"/>
      <animate attributeName="x1" values="1;-1;1" dur="11s" repeatCount="indefinite"
               calcMode="spline" keyTimes="0;0.5;1" keySplines="0.4 0 0.6 1;0.4 0 0.6 1"/>
      <animate attributeName="x2" values="2;0;2" dur="11s" repeatCount="indefinite"
               calcMode="spline" keyTimes="0;0.5;1" keySplines="0.4 0 0.6 1;0.4 0 0.6 1"/>
    </linearGradient>
    <linearGradient id="waveSweep3" x1="0" y1="0" x2="1" y2="0" gradientUnits="objectBoundingBox">
      <stop offset="0%"   stop-color="#7B5EAA" stop-opacity="0"/>
      <stop offset="50%"  stop-color="#7B5EAA" stop-opacity="0.85"/>
      <stop offset="100%" stop-color="#7B5EAA" stop-opacity="0"/>
      <animate attributeName="x1" values="-1;1;-1" dur="14s" begin="3s" repeatCount="indefinite"
               calcMode="spline" keyTimes="0;0.5;1" keySplines="0.4 0 0.6 1;0.4 0 0.6 1"/>
      <animate attributeName="x2" values="0;2;0" dur="14s" begin="3s" repeatCount="indefinite"
               calcMode="spline" keyTimes="0;0.5;1" keySplines="0.4 0 0.6 1;0.4 0 0.6 1"/>
    </linearGradient>
    <!-- Soft glow filter — a subtle halo on the wave strokes makes them read as
         luminous lines rather than crisp pixels. -->
    <filter id="waveGlow" x="-5%" y="-50%" width="110%" height="200%">
      <feGaussianBlur stdDeviation="0.6"/>
    </filter>
  </defs>
  <!-- Static thin base line for SMIL-off renderers. -->
  <rect x="0" y="11.5" width="1200" height="1" fill="#7B5EAA" fill-opacity="0.20"/>
  <!-- Three sine wave layers — different period/amplitude/y-center/timing/color.
       Stroked, not filled, so the wave shape is clearly visible. -->
  <g filter="url(#waveGlow)">
    <path d="M 0,8.0 Q 30.0,3.0 60.0,8.0 T 120.0,8.0 T 180.0,8.0 T 240.0,8.0 T 300.0,8.0 T 360.0,8.0 T 420.0,8.0 T 480.0,8.0 T 540.0,8.0 T 600.0,8.0 T 660.0,8.0 T 720.0,8.0 T 780.0,8.0 T 840.0,8.0 T 900.0,8.0 T 960.0,8.0 T 1020.0,8.0 T 1080.0,8.0 T 1140.0,8.0 T 1200.0,8.0" fill="none" stroke="url(#waveSweep1)" stroke-width="1.6" stroke-linecap="round"/>
    <path d="M 0,12.0 Q 40.0,8.0 80.0,12.0 T 160.0,12.0 T 240.0,12.0 T 320.0,12.0 T 400.0,12.0 T 480.0,12.0 T 560.0,12.0 T 640.0,12.0 T 720.0,12.0 T 800.0,12.0 T 880.0,12.0 T 960.0,12.0 T 1040.0,12.0 T 1120.0,12.0 T 1200.0,12.0" fill="none" stroke="url(#waveSweep2)" stroke-width="1.8" stroke-linecap="round"/>
    <path d="M 0,16.0 Q 50.0,10.0 100.0,16.0 T 200.0,16.0 T 300.0,16.0 T 400.0,16.0 T 500.0,16.0 T 600.0,16.0 T 700.0,16.0 T 800.0,16.0 T 900.0,16.0 T 1000.0,16.0 T 1100.0,16.0 T 1200.0,16.0" fill="none" stroke="url(#waveSweep3)" stroke-width="2.0" stroke-linecap="round"/>
  </g>
  <!-- Background fade for environments where the layered waves dominate too much.
       (Suppressed via opacity — kept for any future need to show a base color.) -->
  <rect x="0" y="0" width="1200" height="24" fill="#0D1117" fill-opacity="0"/>
</svg>
