<?xml version="1.0" encoding="UTF-8"?>
<svg xmlns="http://www.w3.org/2000/svg" width="100%" height="540"
     viewBox="0 0 1200 540" preserveAspectRatio="xMidYMin slice"
     role="img" aria-label="Skill galaxy">
  <style><![CDATA[
    .gx-title { font-family: 'Inter','SF Pro Display',sans-serif; font-weight: 800; font-size: 22px; letter-spacing: 0.18em; text-transform: uppercase; fill: #FFFFFF; }
    .gx-label { font-family: 'JetBrains Mono','SF Mono','Consolas',monospace; font-weight: 500; font-size: 11px; fill: #FFFFFF; fill-opacity: 0.85; letter-spacing: 0.04em; }
  ]]></style>
  
  <defs>
    <radialGradient id="gx-bg" cx="50%" cy="55%" r="65%">
      <stop offset="0%" stop-color="#1A0A24"/>
      <stop offset="55%" stop-color="#0B0218"/>
      <stop offset="100%" stop-color="#000000"/>
    </radialGradient>
  </defs>
  <rect x="0" y="0" width="1200" height="540" fill="url(#gx-bg)"/>
  <defs>
    <radialGradient id="gx-blob-0" cx="50%" cy="50%" r="50%">
      <stop offset="0%" stop-color="#7B5EAA" stop-opacity="0.32"/>
      <stop offset="100%" stop-color="#7B5EAA" stop-opacity="0"/>
    </radialGradient>
  </defs>
  <circle cx="360" cy="189" r="280" fill="url(#gx-blob-0)">
    <animate attributeName="cx" values="360;390;360"
             dur="12s" repeatCount="indefinite"/>
  </circle>
  <defs>
    <radialGradient id="gx-blob-1" cx="50%" cy="50%" r="50%">
      <stop offset="0%" stop-color="#FF6B9D" stop-opacity="0.32"/>
      <stop offset="100%" stop-color="#FF6B9D" stop-opacity="0"/>
    </radialGradient>
  </defs>
  <circle cx="840" cy="324" r="240" fill="url(#gx-blob-1)">
    <animate attributeName="cx" values="840;870;840"
             dur="15s" repeatCount="indefinite"/>
  </circle>
  <defs>
    <radialGradient id="gx-blob-2" cx="50%" cy="50%" r="50%">
      <stop offset="0%" stop-color="#22D3EE" stop-opacity="0.32"/>
      <stop offset="100%" stop-color="#22D3EE" stop-opacity="0"/>
    </radialGradient>
  </defs>
  <circle cx="600" cy="162" r="200" fill="url(#gx-blob-2)">
    <animate attributeName="cx" values="600;630;600"
             dur="18s" repeatCount="indefinite"/>
  </circle>
  <text x="600.0" y="40" class="gx-title" text-anchor="middle">Skill galaxy</text>
  <g>
    <animateTransform attributeName="transform" type="translate" values="0 0;-12 -8;0 0" dur="40s" repeatCount="indefinite"/>
    <circle cx="857.4" cy="498.9" r="1.4" fill="#FFFFFF" opacity="0.26"/>
  <circle cx="628.2" cy="506.4" r="0.7" fill="#FFFFFF" opacity="0.52"/>
  <circle cx="825.7" cy="224.5" r="0.7" fill="#FFFFFF" opacity="0.71"/>
  <circle cx="612.6" cy="502.3" r="1.2" fill="#FFFFFF" opacity="0.37"/>
  <circle cx="3.5" cy="50.5" r="1.3" fill="#FFFFFF" opacity="0.49"/>
  <circle cx="1169.0" cy="326.8" r="0.7" fill="#FFFFFF" opacity="0.33"/>
  <circle cx="730.0" cy="537.5" r="1.2" fill="#FFFFFF" opacity="0.49"/>
  <circle cx="382.9" cy="431.5" r="0.8" fill="#FFFFFF" opacity="0.46"/>
  <circle cx="348.8" cy="3.0" r="0.6" fill="#FFFFFF" opacity="0.68"/>
  <circle cx="288.9" cy="525.1" r="1.3" fill="#FFFFFF" opacity="0.50"/>
  <circle cx="402.5" cy="80.3" r="1.2" fill="#FFFFFF" opacity="0.44"/>
  <circle cx="804.7" cy="19.3" r="1.6" fill="#FFFFFF" opacity="0.54"/>
  <circle cx="540.3" cy="234.1" r="1.0" fill="#FFFFFF" opacity="0.70"/>
  <circle cx="950.7" cy="156.6" r="1.3" fill="#FFFFFF" opacity="0.50"/>
  <circle cx="545.7" cy="349.7" r="0.9" fill="#FFFFFF" opacity="0.56"/>
  <circle cx="66.5" cy="282.4" r="0.9" fill="#FFFFFF" opacity="0.44"/>
  <circle cx="895.6" cy="498.1" r="1.0" fill="#FFFFFF" opacity="0.32"/>
  <circle cx="1015.7" cy="494.3" r="1.3" fill="#FFFFFF" opacity="0.68"/>
  <circle cx="247.3" cy="144.7" r="0.7" fill="#FFFFFF" opacity="0.59"/>
  <circle cx="543.7" cy="442.2" r="0.8" fill="#FFFFFF" opacity="0.35"/>
  <circle cx="1194.7" cy="174.5" r="1.2" fill="#FFFFFF" opacity="0.51"/>
  <circle cx="713.7" cy="401.3" r="0.9" fill="#FFFFFF" opacity="0.43"/>
  <circle cx="461.6" cy="20.8" r="1.5" fill="#FFFFFF" opacity="0.70"/>
  <circle cx="359.0" cy="423.6" r="1.1" fill="#FFFFFF" opacity="0.45"/>
  <circle cx="65.9" cy="502.4" r="1.2" fill="#FFFFFF" opacity="0.65"/>
  <circle cx="958.0" cy="243.2" r="1.3" fill="#FFFFFF" opacity="0.30"/>
  <circle cx="579.3" cy="226.5" r="1.4" fill="#FFFFFF" opacity="0.47"/>
  <circle cx="1011.1" cy="88.7" r="0.8" fill="#FFFFFF" opacity="0.67"/>
  <circle cx="617.6" cy="376.2" r="1.2" fill="#FFFFFF" opacity="0.70"/>
  <circle cx="1181.2" cy="309.2" r="1.5" fill="#FFFFFF" opacity="0.74"/>
  <circle cx="359.5" cy="213.8" r="1.5" fill="#FFFFFF" opacity="0.57"/>
  <circle cx="971.6" cy="532.5" r="1.0" fill="#FFFFFF" opacity="0.48"/>
  <circle cx="575.4" cy="513.2" r="0.8" fill="#FFFFFF" opacity="0.65"/>
  <circle cx="309.3" cy="446.3" r="1.3" fill="#FFFFFF" opacity="0.29"/>
  <circle cx="553.2" cy="296.6" r="1.1" fill="#FFFFFF" opacity="0.33"/>
  <circle cx="297.1" cy="80.4" r="1.4" fill="#FFFFFF" opacity="0.52"/>
  <circle cx="263.3" cy="516.8" r="1.2" fill="#FFFFFF" opacity="0.65"/>
  <circle cx="1013.8" cy="222.6" r="1.5" fill="#FFFFFF" opacity="0.57"/>
  <circle cx="205.2" cy="312.1" r="0.7" fill="#FFFFFF" opacity="0.27"/>
  <circle cx="719.9" cy="179.9" r="1.3" fill="#FFFFFF" opacity="0.67"/>
  <circle cx="1166.4" cy="128.9" r="0.8" fill="#FFFFFF" opacity="0.43"/>
  <circle cx="701.4" cy="61.0" r="1.4" fill="#FFFFFF" opacity="0.38"/>
  <circle cx="156.4" cy="126.1" r="0.6" fill="#FFFFFF" opacity="0.58"/>
  <circle cx="618.3" cy="38.4" r="1.5" fill="#FFFFFF" opacity="0.57"/>
  <circle cx="591.8" cy="218.8" r="1.2" fill="#FFFFFF" opacity="0.75"/>
  <circle cx="879.5" cy="243.1" r="1.4" fill="#FFFFFF" opacity="0.37"/>
  <circle cx="22.4" cy="125.2" r="0.9" fill="#FFFFFF" opacity="0.40"/>
  <circle cx="487.7" cy="151.7" r="0.8" fill="#FFFFFF" opacity="0.59"/>
  <circle cx="696.0" cy="486.3" r="1.4" fill="#FFFFFF" opacity="0.38"/>
  <circle cx="945.9" cy="143.2" r="0.6" fill="#FFFFFF" opacity="0.37"/>
  <circle cx="490.8" cy="531.4" r="1.0" fill="#FFFFFF" opacity="0.26"/>
  <circle cx="1052.5" cy="167.2" r="1.3" fill="#FFFFFF" opacity="0.69"/>
  <circle cx="198.3" cy="126.6" r="1.6" fill="#FFFFFF" opacity="0.59"/>
  <circle cx="559.9" cy="430.9" r="1.1" fill="#FFFFFF" opacity="0.59"/>
  <circle cx="941.1" cy="536.0" r="0.7" fill="#FFFFFF" opacity="0.51"/>
  <circle cx="339.6" cy="535.8" r="1.0" fill="#FFFFFF" opacity="0.48"/>
  <circle cx="695.3" cy="224.0" r="1.2" fill="#FFFFFF" opacity="0.69"/>
  <circle cx="439.4" cy="142.0" r="1.5" fill="#FFFFFF" opacity="0.27"/>
  <circle cx="1129.7" cy="387.8" r="0.7" fill="#FFFFFF" opacity="0.59"/>
  <circle cx="447.2" cy="359.7" r="1.0" fill="#FFFFFF" opacity="0.69"/>
  <circle cx="1187.9" cy="507.6" r="0.9" fill="#FFFFFF" opacity="0.28"/>
  <circle cx="914.9" cy="519.8" r="1.3" fill="#FFFFFF" opacity="0.48"/>
  <circle cx="184.8" cy="390.6" r="1.2" fill="#FFFFFF" opacity="0.70"/>
  <circle cx="346.7" cy="250.0" r="1.4" fill="#FFFFFF" opacity="0.40"/>
  <circle cx="77.1" cy="228.2" r="1.0" fill="#FFFFFF" opacity="0.69"/>
  <circle cx="846.9" cy="157.8" r="0.8" fill="#FFFFFF" opacity="0.57"/>
  <circle cx="531.2" cy="406.4" r="0.7" fill="#FFFFFF" opacity="0.31"/>
  <circle cx="125.6" cy="222.5" r="0.8" fill="#FFFFFF" opacity="0.49"/>
  <circle cx="172.2" cy="20.6" r="1.1" fill="#FFFFFF" opacity="0.60"/>
  <circle cx="82.2" cy="3.6" r="1.6" fill="#FFFFFF" opacity="0.72"/>
  <circle cx="574.4" cy="220.8" r="0.7" fill="#FFFFFF" opacity="0.25"/>
  <circle cx="393.8" cy="343.3" r="0.7" fill="#FFFFFF" opacity="0.74"/>
  <circle cx="83.3" cy="276.1" r="1.3" fill="#FFFFFF" opacity="0.74"/>
  <circle cx="657.4" cy="21.7" r="1.6" fill="#FFFFFF" opacity="0.38"/>
  <circle cx="44.1" cy="189.0" r="1.1" fill="#FFFFFF" opacity="0.70"/>
  <circle cx="97.5" cy="483.1" r="1.2" fill="#FFFFFF" opacity="0.64"/>
  <circle cx="135.1" cy="236.7" r="1.6" fill="#FFFFFF" opacity="0.30"/>
  <circle cx="828.2" cy="74.6" r="1.6" fill="#FFFFFF" opacity="0.70"/>
  <circle cx="600.7" cy="317.0" r="1.2" fill="#FFFFFF" opacity="0.44"/>
  <circle cx="704.3" cy="69.4" r="1.1" fill="#FFFFFF" opacity="0.39"/>
  <circle cx="83.6" cy="373.7" r="0.8" fill="#FFFFFF" opacity="0.68"/>
  <circle cx="631.4" cy="318.1" r="0.7" fill="#FFFFFF" opacity="0.45"/>
  <circle cx="571.1" cy="350.0" r="1.5" fill="#FFFFFF" opacity="0.32"/>
  <circle cx="42.5" cy="410.3" r="1.3" fill="#FFFFFF" opacity="0.74"/>
  <circle cx="197.5" cy="77.8" r="1.6" fill="#FFFFFF" opacity="0.56"/>
  <circle cx="918.4" cy="174.0" r="0.9" fill="#FFFFFF" opacity="0.25"/>
  <circle cx="999.1" cy="299.9" r="1.0" fill="#FFFFFF" opacity="0.36"/>
  <circle cx="1133.0" cy="441.3" r="0.7" fill="#FFFFFF" opacity="0.56"/>
  <circle cx="271.4" cy="227.9" r="1.0" fill="#FFFFFF" opacity="0.63"/>
  <circle cx="741.0" cy="140.6" r="1.0" fill="#FFFFFF" opacity="0.66"/>
  <circle cx="91.7" cy="137.4" r="1.1" fill="#FFFFFF" opacity="0.46"/>
  <circle cx="257.8" cy="158.2" r="0.6" fill="#FFFFFF" opacity="0.70"/>
  <circle cx="1182.5" cy="256.3" r="0.7" fill="#FFFFFF" opacity="0.33"/>
  <circle cx="1034.6" cy="114.9" r="1.3" fill="#FFFFFF" opacity="0.48"/>
  <circle cx="380.5" cy="395.8" r="1.3" fill="#FFFFFF" opacity="0.38"/>
  <circle cx="848.1" cy="265.7" r="1.5" fill="#FFFFFF" opacity="0.44"/>
  <circle cx="612.9" cy="81.9" r="0.7" fill="#FFFFFF" opacity="0.31"/>
  <circle cx="845.6" cy="114.0" r="0.9" fill="#FFFFFF" opacity="0.28"/>
  <circle cx="795.8" cy="534.3" r="0.9" fill="#FFFFFF" opacity="0.31"/>
  <circle cx="335.6" cy="206.4" r="1.5" fill="#FFFFFF" opacity="0.53"/>
  <circle cx="421.6" cy="207.5" r="1.4" fill="#FFFFFF" opacity="0.36"/>
  <circle cx="79.0" cy="27.6" r="1.2" fill="#FFFFFF" opacity="0.40"/>
  <circle cx="122.3" cy="177.5" r="1.2" fill="#FFFFFF" opacity="0.40"/>
  <circle cx="105.3" cy="128.7" r="0.8" fill="#FFFFFF" opacity="0.48"/>
  <circle cx="290.1" cy="384.8" r="1.1" fill="#FFFFFF" opacity="0.44"/>
  <circle cx="373.4" cy="136.3" r="1.6" fill="#FFFFFF" opacity="0.69"/>
  <circle cx="1113.3" cy="61.6" r="0.9" fill="#FFFFFF" opacity="0.51"/>
  <circle cx="6.5" cy="230.2" r="1.0" fill="#FFFFFF" opacity="0.45"/>
  <circle cx="175.2" cy="153.5" r="0.9" fill="#FFFFFF" opacity="0.39"/>
  <circle cx="108.3" cy="536.0" r="1.3" fill="#FFFFFF" opacity="0.52"/>
  <circle cx="506.1" cy="181.4" r="1.6" fill="#FFFFFF" opacity="0.49"/>
  <circle cx="207.9" cy="93.7" r="1.5" fill="#FFFFFF" opacity="0.36"/>
  <circle cx="697.9" cy="507.3" r="1.0" fill="#FFFFFF" opacity="0.71"/>
  <circle cx="233.6" cy="366.0" r="0.8" fill="#FFFFFF" opacity="0.50"/>
  <circle cx="757.8" cy="229.6" r="1.4" fill="#FFFFFF" opacity="0.52"/>
  <circle cx="300.9" cy="39.5" r="1.5" fill="#FFFFFF" opacity="0.48"/>
  <circle cx="984.6" cy="173.8" r="1.0" fill="#FFFFFF" opacity="0.54"/>
  <circle cx="516.7" cy="305.4" r="1.3" fill="#FFFFFF" opacity="0.52"/>
  <circle cx="959.5" cy="213.1" r="1.1" fill="#FFFFFF" opacity="0.25"/>
  <circle cx="762.2" cy="98.7" r="1.4" fill="#FFFFFF" opacity="0.69"/>
  <line x1="922.8" y1="122.7" x2="107.1" y2="371.1" stroke="#FFFFFF" stroke-opacity="0.22" stroke-width="1"><animate attributeName="stroke-opacity" values="0.10;0.32;0.10" dur="6s" repeatCount="indefinite"/></line>
  <line x1="922.8" y1="122.7" x2="739.1" y2="111.0" stroke="#FFFFFF" stroke-opacity="0.22" stroke-width="1"><animate attributeName="stroke-opacity" values="0.10;0.32;0.10" dur="6s" repeatCount="indefinite"/></line>
  <line x1="922.8" y1="122.7" x2="906.9" y2="354.6" stroke="#FFFFFF" stroke-opacity="0.22" stroke-width="1"><animate attributeName="stroke-opacity" values="0.10;0.32;0.10" dur="6s" repeatCount="indefinite"/></line>
  <line x1="194.2" y1="370.8" x2="776.9" y2="262.3" stroke="#FFFFFF" stroke-opacity="0.22" stroke-width="1"><animate attributeName="stroke-opacity" values="0.10;0.32;0.10" dur="6s" repeatCount="indefinite"/></line>
  <line x1="776.9" y1="262.3" x2="514.4" y2="432.8" stroke="#FFFFFF" stroke-opacity="0.22" stroke-width="1"><animate attributeName="stroke-opacity" values="0.10;0.32;0.10" dur="6s" repeatCount="indefinite"/></line>
  <line x1="101.4" y1="373.7" x2="772.0" y2="157.5" stroke="#FFFFFF" stroke-opacity="0.22" stroke-width="1"><animate attributeName="stroke-opacity" values="0.10;0.32;0.10" dur="6s" repeatCount="indefinite"/></line>
  <line x1="772.0" y1="157.5" x2="362.8" y2="238.1" stroke="#FFFFFF" stroke-opacity="0.22" stroke-width="1"><animate attributeName="stroke-opacity" values="0.10;0.32;0.10" dur="6s" repeatCount="indefinite"/></line>
  
  <g transform="translate(922.8,122.7)">
    <circle r="14" fill="#FFD23F" opacity="0.18"/>
    <circle r="6" fill="#FFD23F">
      <animate attributeName="opacity" values="0.55;1;0.55"
               begin="0.00s" dur="2.2s" repeatCount="indefinite"/>
    </circle>
    <line x1="-12" y1="0" x2="12" y2="0"
          stroke="#FFD23F" stroke-opacity="0.55" stroke-width="0.8"/>
    <line x1="0" y1="-12" x2="0" y2="12"
          stroke="#FFD23F" stroke-opacity="0.55" stroke-width="0.8"/>
    <text y="24" class="gx-label" text-anchor="middle">Python</text>
  </g>
  
  <g transform="translate(107.1,371.1)">
    <circle r="13" fill="#CE422B" opacity="0.18"/>
    <circle r="5" fill="#CE422B">
      <animate attributeName="opacity" values="0.55;1;0.55"
               begin="0.37s" dur="2.6s" repeatCount="indefinite"/>
    </circle>
    <line x1="-11" y1="0" x2="11" y2="0"
          stroke="#CE422B" stroke-opacity="0.55" stroke-width="0.8"/>
    <line x1="0" y1="-11" x2="0" y2="11"
          stroke="#CE422B" stroke-opacity="0.55" stroke-width="0.8"/>
    <text y="23" class="gx-label" text-anchor="middle">Rust</text>
  </g>
  
  <g transform="translate(194.2,370.8)">
    <circle r="13" fill="#3178C6" opacity="0.18"/>
    <circle r="5" fill="#3178C6">
      <animate attributeName="opacity" values="0.55;1;0.55"
               begin="0.74s" dur="3.0s" repeatCount="indefinite"/>
    </circle>
    <line x1="-11" y1="0" x2="11" y2="0"
          stroke="#3178C6" stroke-opacity="0.55" stroke-width="0.8"/>
    <line x1="0" y1="-11" x2="0" y2="11"
          stroke="#3178C6" stroke-opacity="0.55" stroke-width="0.8"/>
    <text y="23" class="gx-label" text-anchor="middle">TypeScript</text>
  </g>
  
  <g transform="translate(776.9,262.3)">
    <circle r="12" fill="#61DAFB" opacity="0.18"/>
    <circle r="4" fill="#61DAFB">
      <animate attributeName="opacity" values="0.55;1;0.55"
               begin="1.11s" dur="3.4s" repeatCount="indefinite"/>
    </circle>
    <line x1="-10" y1="0" x2="10" y2="0"
          stroke="#61DAFB" stroke-opacity="0.55" stroke-width="0.8"/>
    <line x1="0" y1="-10" x2="0" y2="10"
          stroke="#61DAFB" stroke-opacity="0.55" stroke-width="0.8"/>
    <text y="22" class="gx-label" text-anchor="middle">React</text>
  </g>
  
  <g transform="translate(101.4,373.7)">
    <circle r="13" fill="#FF9900" opacity="0.18"/>
    <circle r="5" fill="#FF9900">
      <animate attributeName="opacity" values="0.55;1;0.55"
               begin="1.48s" dur="3.8s" repeatCount="indefinite"/>
    </circle>
    <line x1="-11" y1="0" x2="11" y2="0"
          stroke="#FF9900" stroke-opacity="0.55" stroke-width="0.8"/>
    <line x1="0" y1="-11" x2="0" y2="11"
          stroke="#FF9900" stroke-opacity="0.55" stroke-width="0.8"/>
    <text y="23" class="gx-label" text-anchor="middle">AWS</text>
  </g>
  
  <g transform="translate(739.1,111.0)">
    <circle r="12" fill="#4169E1" opacity="0.18"/>
    <circle r="4" fill="#4169E1">
      <animate attributeName="opacity" values="0.55;1;0.55"
               begin="1.85s" dur="2.2s" repeatCount="indefinite"/>
    </circle>
    <line x1="-10" y1="0" x2="10" y2="0"
          stroke="#4169E1" stroke-opacity="0.55" stroke-width="0.8"/>
    <line x1="0" y1="-10" x2="0" y2="10"
          stroke="#4169E1" stroke-opacity="0.55" stroke-width="0.8"/>
    <text y="22" class="gx-label" text-anchor="middle">PostgreSQL</text>
  </g>
  
  <g transform="translate(772.0,157.5)">
    <circle r="12" fill="#22D3EE" opacity="0.18"/>
    <circle r="4" fill="#22D3EE">
      <animate attributeName="opacity" values="0.55;1;0.55"
               begin="2.22s" dur="2.6s" repeatCount="indefinite"/>
    </circle>
    <line x1="-10" y1="0" x2="10" y2="0"
          stroke="#22D3EE" stroke-opacity="0.55" stroke-width="0.8"/>
    <line x1="0" y1="-10" x2="0" y2="10"
          stroke="#22D3EE" stroke-opacity="0.55" stroke-width="0.8"/>
    <text y="22" class="gx-label" text-anchor="middle">Docker</text>
  </g>
  
  <g transform="translate(362.8,238.1)">
    <circle r="12" fill="#326CE5" opacity="0.18"/>
    <circle r="4" fill="#326CE5">
      <animate attributeName="opacity" values="0.55;1;0.55"
               begin="2.59s" dur="3.0s" repeatCount="indefinite"/>
    </circle>
    <line x1="-10" y1="0" x2="10" y2="0"
          stroke="#326CE5" stroke-opacity="0.55" stroke-width="0.8"/>
    <line x1="0" y1="-10" x2="0" y2="10"
          stroke="#326CE5" stroke-opacity="0.55" stroke-width="0.8"/>
    <text y="22" class="gx-label" text-anchor="middle">Kubernetes</text>
  </g>
  
  <g transform="translate(514.4,432.8)">
    <circle r="12" fill="#FF6B9D" opacity="0.18"/>
    <circle r="4" fill="#FF6B9D">
      <animate attributeName="opacity" values="0.55;1;0.55"
               begin="2.96s" dur="3.4s" repeatCount="indefinite"/>
    </circle>
    <line x1="-10" y1="0" x2="10" y2="0"
          stroke="#FF6B9D" stroke-opacity="0.55" stroke-width="0.8"/>
    <line x1="0" y1="-10" x2="0" y2="10"
          stroke="#FF6B9D" stroke-opacity="0.55" stroke-width="0.8"/>
    <text y="22" class="gx-label" text-anchor="middle">Three.js</text>
  </g>
  
  <g transform="translate(906.9,354.6)">
    <circle r="11" fill="#34D399" opacity="0.18"/>
    <circle r="3" fill="#34D399">
      <animate attributeName="opacity" values="0.55;1;0.55"
               begin="3.33s" dur="3.8s" repeatCount="indefinite"/>
    </circle>
    <line x1="-9" y1="0" x2="9" y2="0"
          stroke="#34D399" stroke-opacity="0.55" stroke-width="0.8"/>
    <line x1="0" y1="-9" x2="0" y2="9"
          stroke="#34D399" stroke-opacity="0.55" stroke-width="0.8"/>
    <text y="21" class="gx-label" text-anchor="middle">Pydantic</text>
  </g>
  </g>
</svg>
